<svg xmlns="http://www.w3.org/2000/svg" xmlns:xlink="http://www.w3.org/1999/xlink" version="1.1" id="Ebene_1" x="0px" y="0px" style="enable-background:new 0 0 841.9 595.3;" xml:space="preserve" viewBox="144.6 109.8 553 386.5">
<style type="text/css">
	.st0{fill:#641128;}
</style>
<path class="st0" d="M660.9,242.5c0.9,0,1.8-0.3,2.5-0.8l33.6,57.8l0.6-0.3L664,241.3c1-0.9,1.7-2.2,1.7-3.6c0-2.6-2.1-4.7-4.7-4.7  c-0.6,0-1.1,0.1-1.6,0.3l-31.6-54.4c1.3-1,2.1-2.6,2.2-4.3h31.2v-0.6h-31.2c-0.2-3.1-2.7-5.6-5.9-5.6c-0.8,0-1.5,0.2-2.2,0.4  l-34.3-59l-0.6,0.3l34.3,59c-1.8,0.9-3,2.8-3.1,4.9h-60.9c-0.2-3.6-3.2-6.5-6.8-6.5c-0.8,0-1.5,0.1-2.2,0.4l-33.3-57.2l-0.6,0.3  l33.2,57.1c-2.3,1-3.9,3.3-4,5.9h-60.1c-0.2-3.6-3.2-6.5-6.8-6.5c-0.8,0-1.5,0.1-2.2,0.4L441,110.3l-0.6,0.3l33.4,57.4  c-2.3,1-3.9,3.3-4,5.9h-61.2c-0.2-2.9-2.6-5.2-5.5-5.2s-5.3,2.3-5.5,5.2h-61.8c-0.1-2-1.1-3.8-2.7-4.9l34-58.1l-0.6-0.3l-34,58.1  c-0.9-0.5-2-0.8-3.2-0.8c-3.4,0-6.2,2.7-6.4,6.1h-60.8c-0.2-3.4-3-6.1-6.4-6.1c-3.4,0-6.2,2.7-6.4,6.1h-62.2c-0.1-2.8-2.3-5-5.1-5  c-2.8,0-5.1,2.3-5.1,5.1c0,2.8,2.3,5.1,5.1,5.1c0.8,0,1.5-0.2,2.1-0.5l31.7,54.1c-1.5,1-2.6,2.7-2.7,4.7h-35v0.6h35  c0.2,3.2,2.8,5.7,6,5.7c1,0,1.9-0.2,2.8-0.7l30.5,52c-1.6,1-2.8,2.8-2.9,4.8H188c-0.2-3.2-2.8-5.7-6-5.7c-0.8,0-1.5,0.2-2.2,0.4  l-34-58.1l-0.6,0.3l34,58c-1.9,1-3.3,3-3.3,5.3c0,3.3,2.7,6,6,6c1.2,0,2.4-0.4,3.3-1l30.8,52.6c-1.7,1-2.8,2.8-2.8,4.9  c0,0.1,0,0.1,0,0.2h-35v0.6h35c0.3,1.7,1.3,3.2,2.8,4.1l-31.3,53.4c-0.8-0.5-1.8-0.8-2.9-0.8c-0.9,0-1.8,0.2-2.5,0.6l-34.1-58.3  l-0.6,0.3l34.1,58.3c-1.6,1-2.6,2.8-2.6,4.8c0,2.1,1.1,3.9,2.8,4.9l-33.9,57.9l0.6,0.3l33.9-57.9c0.7,0.3,1.5,0.5,2.3,0.5  c1,0,1.9-0.2,2.6-0.7l31.1,53.1c-1.5,1-2.6,2.6-2.7,4.5h-34.7v0.6H213c0.2,3,2.6,5.4,5.7,5.4c3,0,5.5-2.4,5.7-5.4h62.1  c0.2,3.2,2.9,5.8,6.1,5.8c3.3,0,6-2.6,6.1-5.8h61.9c0.2,3,2.6,5.4,5.7,5.4c3,0,5.5-2.4,5.7-5.4h60.4c0.2,4.1,3.5,7.3,7.6,7.3  c4.1,0,7.4-3.2,7.6-7.3H507c0.2,3.5,3.1,6.4,6.7,6.4c3.7,0,6.7-3,6.7-6.7c0-2.3-1.2-4.4-3-5.6l30.5-52c0.7,0.4,1.6,0.6,2.5,0.6  c0.9,0,1.8-0.2,2.6-0.6l33.8,57.8l0.6-0.3L553.4,431c1.5-1,2.4-2.6,2.5-4.4h68.5v-0.6h-68.5c-0.1-1.8-1-3.4-2.4-4.3l32-54.6  c0.5,0.2,1.1,0.3,1.7,0.3c2.2,0,4-1.6,4.3-3.8h69.6v-0.6h-69.5c0-1.3-0.7-2.5-1.7-3.3l30.8-52.4c0.9,0.4,2,0.7,3.1,0.7  c4.1,0,7.4-3.2,7.6-7.3h29.7v-0.6h-29.7c-0.1-2.4-1.3-4.4-3-5.8l30.6-52.2C659.5,242.3,660.2,242.5,660.9,242.5z M658.7,233.6  c-1.4,0.7-2.4,2.2-2.5,3.9h-62.9c-0.1-2.1-1.3-3.9-3.1-4.9l31.1-53.1c0.8,0.4,1.7,0.7,2.7,0.7c0,0,0,0,0,0c1.2,0,2.2-0.3,3.2-0.9  L658.7,233.6z M616.1,299.9h-60c-0.1-1.9-1.2-3.6-2.7-4.5l30.8-52.7c0.9,0.6,2,0.9,3.1,0.9c1.3,0,2.5-0.4,3.4-1.1l29.6,50.9  C617.9,294.6,616.2,297.1,616.1,299.9z M582.9,362.9h-63.7c0-0.1,0-0.1,0-0.2c0-2-1-3.7-2.5-4.7l30.9-52.8c0.8,0.5,1.8,0.7,2.8,0.7  c1.1,0,2.1-0.3,3-0.9l31.5,54.3C583.8,360.1,583,361.4,582.9,362.9z M544.6,425.9h-60.2c0-2.7-1.4-5.1-3.6-6.4l30.3-51.7  c0.8,0.4,1.6,0.6,2.6,0.6c0.8,0,1.5-0.2,2.2-0.4l31.3,53.5C545.6,422.5,544.7,424.1,544.6,425.9z M507,488.6h-59.3  c-0.1-1.9-0.9-3.7-2.2-5.1c-0.4-0.4-0.9-0.8-1.5-1.1l29.1-49.8c1.1,0.6,2.4,0.9,3.6,0.9c1.3,0,2.5-0.3,3.6-0.9l29.7,50.7  C508.2,484.5,507.1,486.4,507,488.6z M222.1,484.4l31-53c0.8,0.4,1.8,0.7,2.8,0.7c1.1,0,2.2-0.3,3.1-0.9l30.6,52.3  c-1.8,1-3,2.9-3.2,5.1h-62.1C224.3,486.9,223.4,485.4,222.1,484.4z M262.3,174.6H323c0.1,2.2,1.3,4.1,3.1,5.2l-30.5,52.1  c-0.9-0.4-1.8-0.7-2.9-0.7c0,0,0,0,0,0c-0.9,0-1.7,0.2-2.5,0.5l-30.6-52.3C261.2,178.3,262.2,176.5,262.3,174.6z M620.7,179.2  l-31.1,53.1c-0.7-0.3-1.5-0.4-2.2-0.4c-0.7,0-1.3,0.1-1.9,0.3l-30.7-52.8c0.1-0.1,0.2-0.2,0.3-0.3c1.2-1.2,1.9-2.8,2-4.5h60.9  C618.2,176.5,619.2,178.2,620.7,179.2z M440,482L440,482L440,482L440,482z M440,481.3c-1.1,0-2.2,0.2-3.1,0.7l-30-51.2  c1.3-1,2.1-2.5,2.2-4.2h60c0.1,1.8,0.9,3.5,2.2,4.8c0.4,0.4,0.8,0.7,1.2,1l-29.1,49.8C442.3,481.6,441.2,481.3,440,481.3z   M366.3,483.3c-0.9,0-1.8,0.2-2.6,0.6l-31.1-53.1c1.4-0.9,2.4-2.4,2.6-4.2h62.4c0.1,1.8,1,3.3,2.4,4.3l-31.1,53  C368.2,483.5,367.3,483.3,366.3,483.3z M292.6,482.8c-0.9,0-1.7,0.2-2.4,0.5l-30.7-52.4c1.4-1,2.3-2.6,2.5-4.4H324  c0.2,1.7,1.1,3.2,2.5,4.1l-30.9,52.8C294.6,483.1,293.7,482.8,292.6,482.8z M261.7,300.6h61.8c0.1,2,1.2,3.8,2.8,4.8l-30.7,52.4  c-0.9-0.5-1.9-0.8-2.9-0.8c-1,0-1.9,0.2-2.8,0.7l-30.7-52.5C260.6,304.1,261.6,302.5,261.7,300.6z M329.4,180.7c1,0,2-0.3,2.9-0.7  l31.1,53.2c-1.4,0.9-2.4,2.5-2.5,4.3h-61.6c-0.1-2.2-1.3-4.2-3.1-5.3l30.5-52.1C327.5,180.4,328.5,180.7,329.4,180.7z M403.1,179.8  c0.8,0,1.5-0.2,2.2-0.4l31.5,53.9c-1.4,0.9-2.3,2.5-2.4,4.2h-62.6c-0.1-1.8-1.1-3.4-2.6-4.3l31.5-53.8  C401.5,179.6,402.3,179.8,403.1,179.8z M476.7,181.1c1.5,0,2.9-0.5,4-1.3l30.5,52.5c-2,0.9-3.4,2.8-3.5,5.1h-62.4  c-0.1-1.8-1-3.3-2.4-4.2l30.9-52.8C474.6,180.8,475.6,181.1,476.7,181.1z M550.4,181.1c1.5,0,2.8-0.5,4-1.3l30.6,52.6  c-1.9,0.9-3.3,2.8-3.4,5h-62.1c-0.1-1.9-1.1-3.6-2.6-4.6l30.7-52.4C548.4,180.8,549.3,181.1,550.4,181.1z M544.8,299.9h-62.3  c-0.1-1.8-1-3.4-2.4-4.3l30.8-52.6c0.8,0.4,1.7,0.6,2.7,0.6c0,0,0,0,0,0c1.3,0,2.5-0.4,3.5-1.2l30.7,52.8  C546.1,296.2,544.9,297.9,544.8,299.9z M507.9,362.8c0,0.1,0,0.1,0,0.2h-62.1c0-0.1,0-0.1,0-0.2c0-1.9-0.9-3.6-2.3-4.6l30.9-52.8  c0.7,0.4,1.6,0.6,2.5,0.6c0.8,0,1.6-0.2,2.3-0.5l30.9,52.8C508.7,359.3,507.9,361,507.9,362.8z M469.1,425.9h-60  c-0.1-1.9-1.2-3.6-2.7-4.5l31.3-53.5c0.7,0.3,1.5,0.5,2.4,0.5c0.8,0,1.6-0.2,2.3-0.5l30.2,51.6C470.5,420.9,469.1,423.3,469.1,425.9  z M335.3,425.9c0-2-1-3.7-2.6-4.7l31.2-53.4c0.8,0.4,1.7,0.6,2.6,0.6c1,0,1.9-0.2,2.7-0.7l31.3,53.5c-1.6,0.9-2.7,2.6-2.9,4.6H335.3  z M434.4,238.1c0.1,1.7,1,3.3,2.4,4.2l-30,51.2c-1.1-0.6-2.4-0.9-3.7-0.9c-1.3,0-2.5,0.3-3.6,0.9l-30-51.2c1.3-0.9,2.2-2.4,2.3-4.2  H434.4z M507.6,238.1c0.1,1.9,1.1,3.6,2.7,4.6l-30.8,52.6c-0.8-0.4-1.7-0.7-2.7-0.7c-1,0-2,0.3-2.9,0.8l-31.1-53.1  c1.4-0.9,2.3-2.5,2.4-4.2H507.6z M403.4,420.6c-0.8,0-1.6,0.2-2.3,0.5l-31.4-53.6c1.3-0.9,2.2-2.3,2.4-3.9h62.2  c0.3,1.7,1.3,3.2,2.7,4.1l-31.3,53.5C405.1,420.8,404.3,420.6,403.4,420.6z M335.4,300.6h59.9c0.1,2.6,1.5,4.9,3.6,6.2l-29.8,50.9  c-0.8-0.4-1.7-0.6-2.6-0.6c-0.9,0-1.8,0.2-2.5,0.6L333.2,305C334.5,303.9,335.3,302.4,335.4,300.6z M439.8,243.2  c0.9,0,1.7-0.2,2.5-0.6l31.1,53.1c-1.3,1-2.2,2.5-2.3,4.2h-60.3c-0.1-2.6-1.5-4.8-3.5-6.1l30-51.2  C438.1,243,438.9,243.2,439.8,243.2z M434.4,362.8c0,0.1,0,0.1,0,0.2h-62.1c0-0.1,0-0.1,0-0.2c0-2-1-3.7-2.6-4.7l29.8-50.9  c1.1,0.6,2.3,0.9,3.6,0.9c1.3,0,2.6-0.3,3.7-0.9l29.9,51.1C435.3,359.2,434.4,360.9,434.4,362.8z M440.1,357.1c-1,0-2,0.3-2.9,0.8  l-29.9-51.1c2-1.3,3.4-3.6,3.5-6.2h60.3c0.1,1.9,1.1,3.5,2.7,4.5l-30.9,52.7C442,357.3,441.1,357.1,440.1,357.1z M366.4,243.2  c0.9,0,1.8-0.2,2.6-0.6l30,51.2c-2.1,1.3-3.5,3.6-3.6,6.2h-59.9c-0.1-1.9-1.1-3.6-2.6-4.6l30.9-52.8  C364.5,242.9,365.4,243.2,366.4,243.2z M329.4,306.3c1.2,0,2.3-0.3,3.2-0.9l30.8,52.6c-1.6,1-2.6,2.8-2.6,4.8c0,0.1,0,0.1,0,0.2  h-62.2c0-2-1.1-3.8-2.6-4.9l30.7-52.4C327.6,306.1,328.5,306.3,329.4,306.3z M298.7,363.6h62.2c0.2,1.6,1.2,3,2.5,3.9l-31.3,53.4  c-0.8-0.4-1.6-0.6-2.5-0.6c-1,0-1.9,0.2-2.7,0.7l-31-52.9C297.5,367.1,298.5,365.5,298.7,363.6z M299.3,238.1H361  c0.1,1.7,1,3.2,2.3,4.1L332.3,295c-0.9-0.5-1.8-0.7-2.9-0.7c-0.8,0-1.6,0.2-2.3,0.4l-30.3-51.8C298.3,241.8,299.3,240,299.3,238.1z   M292.6,369.1c1,0,2-0.3,2.8-0.7l31,52.9c-1.5,1-2.5,2.7-2.5,4.7h-61.8c0-2.1-1.1-4-2.7-5.1l30.7-52.4  C290.8,368.9,291.7,369.1,292.6,369.1z M476.7,418.4c-1.3,0-2.5,0.3-3.5,0.9L443,367.7c1.5-0.9,2.5-2.3,2.7-4.1h62.2  c0.2,1.6,1.2,3.1,2.5,3.9l-30.3,51.7C479.1,418.7,478,418.4,476.7,418.4z M513.6,357.1c-1.1,0-2.1,0.3-3,0.9l-30.9-52.8  c1.6-0.9,2.7-2.6,2.8-4.6h62.3c0.1,1.8,1,3.3,2.4,4.3l-30.9,52.8C515.4,357.3,514.5,357.1,513.6,357.1z M550.5,294.6  c-0.8,0-1.5,0.1-2.1,0.4L517.6,242c1.1-1,1.8-2.4,1.9-4h62.1c0.1,1.7,0.9,3.3,2.2,4.3l-30.9,52.7  C552.1,294.8,551.3,294.6,550.5,294.6z M546.9,180.1l-30.7,52.4c-0.8-0.4-1.7-0.7-2.7-0.7c-0.6,0-1.2,0.1-1.7,0.3l-30.6-52.7  c1.4-1.2,2.2-2.9,2.3-4.8h60.1C543.7,176.9,545,179,546.9,180.1z M473.1,180.1l-30.9,52.8c-0.7-0.4-1.6-0.6-2.4-0.6  c-0.9,0-1.7,0.2-2.5,0.6L405.8,179c1.6-0.9,2.7-2.6,2.8-4.5h61.2C470,176.9,471.3,178.9,473.1,180.1z M400.2,179l-31.5,53.8  c-0.7-0.3-1.5-0.5-2.3-0.5c-0.9,0-1.7,0.2-2.4,0.6l-31.1-53.2c1.7-1.1,2.8-2.9,3-5.1h61.8C397.7,176.4,398.7,178,400.2,179z   M292.8,244.3c1.3,0,2.5-0.4,3.5-1l30.3,51.7c-1.8,1-3,2.8-3.2,5h-61.8c-0.1-1.9-1.1-3.5-2.5-4.6l30.4-51.9  C290.5,244,291.6,244.3,292.8,244.3z M255.7,306.3c1.1,0,2.1-0.3,3-0.8l30.7,52.4c-1.6,1.1-2.7,2.9-2.7,5h-61.9c0-0.1,0-0.1,0-0.2  c0-1.9-0.9-3.5-2.3-4.6l30.7-52.5C253.9,306.1,254.7,306.3,255.7,306.3z M224.6,363.6h62c0.2,1.9,1.3,3.6,2.8,4.6l-30.7,52.3  c-0.9-0.5-1.8-0.7-2.9-0.7c-0.9,0-1.8,0.2-2.5,0.6l-31-53C223.5,366.5,224.4,365.1,224.6,363.6z M296,483.8L327,431  c0.8,0.4,1.7,0.7,2.7,0.7c0.9,0,1.8-0.2,2.5-0.6l31.1,53.1c-1.5,1-2.5,2.6-2.6,4.4h-61.9C298.7,486.6,297.6,484.9,296,483.8z   M369.6,484.3l31.1-53c0.8,0.5,1.8,0.7,2.8,0.7c1.1,0,2.1-0.3,2.9-0.8l30,51.2c-2.2,1.3-3.8,3.6-3.9,6.3H372  C371.9,486.8,371,485.3,369.6,484.3z M184.9,178.3c1.3-0.8,2.2-2.2,2.3-3.7h62.3c0.2,3.4,3,6.1,6.4,6.1c1.2,0,2.3-0.3,3.3-0.9  l30.6,52.2c-2,1.1-3.3,3.1-3.5,5.5h-60.9c-0.2-3.2-2.8-5.7-6-5.7c-1,0-1.9,0.2-2.8,0.7L184.9,178.3z M222.6,242.8  c1.5-1,2.6-2.7,2.7-4.7h60.9c0.1,1.6,0.7,3.2,1.9,4.3c0.3,0.3,0.6,0.5,0.9,0.7L258.6,295c-0.9-0.5-1.9-0.8-3-0.8  c-0.9,0-1.8,0.2-2.6,0.6L222.6,242.8z M185.8,304.9c1.3-1,2.1-2.6,2.2-4.3h61.7c0.1,2,1.2,3.8,2.9,4.8l-30.7,52.4  c-0.8-0.5-1.8-0.8-2.9-0.8c-0.8,0-1.6,0.2-2.4,0.5L185.8,304.9z M216.7,368c0.7,0.3,1.5,0.5,2.3,0.5c1,0,2-0.3,2.8-0.8l31,53  c-1.8,1.1-3,3-3,5.3h-62.1c0-1.8-0.9-3.5-2.3-4.5L216.7,368z M185.1,430.7c1.3-0.9,2.3-2.4,2.5-4.1h62.2c0.2,1.9,1.3,3.6,2.8,4.6  l-31,52.9c-0.9-0.5-1.8-0.8-2.9-0.8c-0.9,0-1.7,0.2-2.4,0.5L185.1,430.7z M516.7,483.1c-0.9-0.5-2-0.8-3.1-0.8  c-1.1,0-2.2,0.3-3.1,0.8l-29.7-50.7c1.9-1.3,3.3-3.4,3.4-5.8h60.3c0.1,1.9,1.1,3.5,2.7,4.5L516.7,483.1z M553,421.3  c-0.8-0.4-1.7-0.7-2.7-0.7c-0.9,0-1.8,0.2-2.6,0.6l-31.3-53.5c1.5-0.8,2.6-2.4,2.9-4.2H583c0.2,1.3,0.9,2.4,2,3.1L553,421.3z   M589.3,359.3c-0.6-0.4-1.3-0.6-2.1-0.6c-0.6,0-1.1,0.1-1.7,0.3L554,304.7c1.2-1,2.1-2.5,2.1-4.1h60c0.1,2.7,1.7,5.1,3.9,6.4  L589.3,359.3z M627.8,293.8c-1.2-0.7-2.6-1.2-4-1.2c-1,0-1.9,0.2-2.8,0.5l-29.7-51c1.1-1,1.9-2.5,2-4.1h62.9  c0.1,1.5,0.9,2.9,2.1,3.6L627.8,293.8z"/>
</svg>