<svg xmlns="http://www.w3.org/2000/svg" xmlns:xlink="http://www.w3.org/1999/xlink" version="1.1" id="Ebene_1" x="0px" y="0px" style="enable-background:new 0 0 841.9 595.3;" xml:space="preserve" viewBox="405.2 285.7 32 23">
<style type="text/css">
	.st0{fill:#FFFFFF;}
</style>
<g id="Gruppe_128" transform="translate(28)">
	<path id="Pfad_119" class="st0" d="M405.2,285.7h-24c-2.2,0-4,1.8-4,4v15c0,2.2,1.8,4,4,4h24c2.2,0,4-1.8,4-4v-15   C409.2,287.5,407.4,285.7,405.2,285.7 M404.8,292.4l-11,9c-0.2,0.1-0.4,0.2-0.6,0.2c-0.2,0-0.5-0.1-0.6-0.2l-11-9   c-0.4-0.3-0.5-1-0.1-1.4c0.3-0.4,1-0.5,1.4-0.1l10.4,8.5l10.4-8.5c0.4-0.3,1.1-0.3,1.4,0.1C405.3,291.5,405.2,292.1,404.8,292.4"/>
</g>
</svg>