<svg xmlns="http://www.w3.org/2000/svg" xmlns:xlink="http://www.w3.org/1999/xlink" version="1.1" id="Ebene_1" x="0px" y="0px" style="enable-background:new 0 0 841.9 595.3;" xml:space="preserve" viewBox="149.1 233.9 561.1 142.4">
<style type="text/css">
	.st0{fill:#ffffff;}
</style>
<g>
	<polygon class="st0" points="187.2,329 207.6,318.1 238.3,341 285.9,341 235.1,303.2 271.5,283.6 304.6,341 357.9,341 358.5,339.7    376.4,303.7 394.3,339.7 394.9,341 448.2,341 489.5,269.3 440.7,269.3 423.1,307.3 402.9,269.3 399.7,269.3 353.1,269.3    349.9,269.3 329.7,307.3 312.1,269.3 298.2,269.3 298.2,269.3 240.5,269.3 187.2,295.7 187.2,269.3 149.1,269.3 149.1,341    187.2,341  "/>
	<polygon class="st0" points="597.9,270.6 580,304.1 562.1,270.6 561.5,269.3 508.1,269.3 466.9,341 515.7,341 534.5,303.7    553.5,341 556.7,341 603.3,341 606.5,341 625.4,303.7 644.3,341 693.1,341 651.8,269.3 598.5,269.3  "/>
	<polygon class="st0" points="706.6,370 179.8,370 161.2,357.6 150,357.6 177,376.3 710.2,376.3  "/>
	<polygon class="st0" points="179.8,240.2 638.6,240.2 634.9,233.9 177,233.9 150,252.6 161.2,252.6  "/>
</g>
</svg>