<svg xmlns="http://www.w3.org/2000/svg" xmlns:xlink="http://www.w3.org/1999/xlink" version="1.1" id="Ebene_1" x="0px" y="0px" style="enable-background:new 0 0 841.9 595.3;" xml:space="preserve" viewBox="408.36 280.6 25.5 33.05">
<style type="text/css">
	.st0{fill:#FFFFFF;}
</style>
<g id="Gruppe_127" transform="translate(12.759)">
	<path id="Pfad_118" class="st0" d="M408.4,280.6c-7,0-12.8,5.7-12.8,12.8c0,6,9.3,16.9,12,19.9c0.4,0.4,1,0.5,1.4,0.1   c0,0,0.1-0.1,0.1-0.1c2.7-3.1,12-13.9,12-19.9C421.2,286.3,415.5,280.6,408.4,280.6C408.4,280.6,408.4,280.6,408.4,280.6    M408.4,299c-3.5,0-6.3-2.8-6.3-6.3c0-3.5,2.8-6.3,6.3-6.3c3.5,0,6.3,2.8,6.3,6.3C414.7,296.2,411.9,299,408.4,299"/>
</g>
</svg>