<svg xmlns="http://www.w3.org/2000/svg" xmlns:xlink="http://www.w3.org/1999/xlink" version="1.1" id="Ebene_1" x="0px" y="0px" style="enable-background:new 0 0 841.9 595.3;" xml:space="preserve" viewBox="406.44 282.35 29.95 30.06">
<style type="text/css">
	.st0{fill:#8E0F3D;}
</style>
<g id="Gruppe_129" transform="translate(4.77 18.767)">
	<path id="Pfad_120" class="st0" d="M406.3,282.2c0.8-1,2.3-1.1,3.3-0.2c0.1,0.1,0.2,0.2,0.2,0.2c0.8,0.8,1.6,1.6,2.5,2.5   c0.2,0.2,0.5,0.3,0.7,0.1c0,0,0,0,0,0c0.5-0.3,1.1-0.5,1.6-0.8c2.3-1.5,4.4-3.4,6.1-5.6c0.9-1.1,1.6-2.3,2.2-3.5   c0.1-0.2,0.1-0.5-0.1-0.6c-0.8-0.8-1.6-1.6-2.4-2.4c-1-0.8-1.1-2.3-0.3-3.3c0.1-0.1,0.2-0.2,0.3-0.3c0.6-0.6,1.3-1.3,1.9-1.9   c0.7-0.7,1.3-1.3,2-2c0.9-1,2.3-1.1,3.3-0.2c0.1,0.1,0.1,0.1,0.2,0.2c0.8,0.8,1.6,1.7,2.5,2.5c0.8,0.7,1.2,1.7,1.3,2.7   c0.1,1.7-0.2,3.4-0.9,4.9c-1.2,3.2-3,6.2-5.3,8.8c-3,3.6-6.7,6.5-10.9,8.5c-1.9,1-3.9,1.6-6,1.8c-1.4,0.2-2.8-0.4-3.8-1.4   c-0.7-0.8-1.5-1.5-2.2-2.3c-1-0.8-1.1-2.3-0.3-3.3c0.1-0.1,0.2-0.2,0.3-0.3C403.6,284.9,405,283.5,406.3,282.2"/>
</g>
</svg>